<svg width="32" height="32" viewBox="0 0 32 32" fill="none" xmlns="http://www.w3.org/2000/svg">
    <rect width="32" height="32" rx="8" fill="url(#gradient)" />
    <path d="M16 8C14.343 8 13 8.895 13 10C13 11.105 14.343 12 16 12C17.657 12 19 12.895 19 14C19 15.105 17.657 16 16 16M16 8C17.11 8 18.08 8.402 18.599 9M16 8V7M16 8V16M16 16V17M16 16C14.89 16 13.92 15.598 13.401 15M25 16C25 20.9706 20.9706 25 16 25C11.0294 25 7 20.9706 7 16C7 11.0294 11.0294 7 16 7C20.9706 7 25 11.0294 25 16Z" stroke="white" strokeWidth="2" strokeLinecap="round" strokeLinejoin="round"/>
    <defs>
        <linearGradient id="gradient" x1="0" y1="0" x2="32" y2="32" gradientUnits="userSpaceOnUse">
            <stop stopColor="#3B82F6"/>
            <stop offset="1" stopColor="#2563EB"/>
        </linearGradient>
    </defs>
</svg> 